<svg xmlns="http://www.w3.org/2000/svg" version="1.1" xmlns:xlink="http://www.w3.org/1999/xlink" xmlns:svgjs="http://svgjs.com/svgjs" width="1000" height="1000"><rect width="1000" height="1000" rx="200" ry="200" fill="#ef4136"></rect><g transform="matrix(33.333333333333336,0,0,33.333333333333336,83.83333333333331,83.83333333333331)"><svg xmlns="http://www.w3.org/2000/svg" version="1.1" xmlns:xlink="http://www.w3.org/1999/xlink" xmlns:svgjs="http://svgjs.com/svgjs" width="24" height="24"><svg xmlns="http://www.w3.org/2000/svg" viewBox="0 0 24 24">
   <path fill="#FFFFFF" d="M15,12H16.5V16.25L19.36,17.94L18.61,19.16L15,17V12M23,16A7,7 0 0,1 16,23C13,23 10.4,21.08 9.42,18.4L8,17.9L2.66,19.97L2.5,20A0.5,0.5 0 0,1 2,19.5V4.38C2,4.15 2.15,3.97 2.36,3.9L8,2L14,4.1L19.34,2H19.5A0.5,0.5 0 0,1 20,2.5V10.25C21.81,11.5 23,13.62 23,16M9,16C9,12.83 11.11,10.15 14,9.29V6.11L8,4V15.89L9,16.24C9,16.16 9,16.08 9,16M16,11A5,5 0 0,0 11,16A5,5 0 0,0 16,21A5,5 0 0,0 21,16A5,5 0 0,0 16,11Z"></path>
</svg></svg></g></svg>